<?xml version="1.0" encoding="UTF-8"?>
<svg id="uuid-2a265d36-5218-48f2-a808-0cfe1ebb22fb" data-name="Capa 2" xmlns="http://www.w3.org/2000/svg" xmlns:xlink="http://www.w3.org/1999/xlink" viewBox="0 0 167.06 163.49">
  <defs>
    <style>
      .uuid-70071c10-8ae0-4676-97ac-6522b91d2fc2 {
        stroke: #fff;
        stroke-miterlimit: 10;
        stroke-width: 2.4px;
        stroke-linecap: round;
        stroke-linejoin: round;
      }

      .uuid-70071c10-8ae0-4676-97ac-6522b91d2fc2, .uuid-edd5b6d3-deef-49ac-983c-b578bdd1b7c2 {
        fill: none;
      }

      .uuid-dot {
        fill: #fff;
      }

      .uuid-85a8b173-ffef-4cfb-a27e-d962969140ba {
        clip-path: url(#uuid-214b96fe-3d91-4d0b-b1c2-9d74ff06ff0e);
      }

      .uuid-7c4456ee-025e-4422-bbe7-049ee5948fa0 {
        fill: #7c9457;
      }
    </style>
    <clipPath id="uuid-214b96fe-3d91-4d0b-b1c2-9d74ff06ff0e">
      <rect class="uuid-edd5b6d3-deef-49ac-983c-b578bdd1b7c2" x="33.27" y="40.93" width="133.79" height="122.55"/>
    </clipPath>
  </defs>
  <g id="uuid-ef11aa6d-ec20-4e24-bfce-bc18e4b42ed6" data-name="Capa 1">
    <g class="uuid-85a8b173-ffef-4cfb-a27e-d962969140ba">
      <circle class="uuid-7c4456ee-025e-4422-bbe7-049ee5948fa0" cx="81.74" cy="81.74" r="81.74"/>
      <path class="uuid-70071c10-8ae0-4676-97ac-6522b91d2fc2" d="m96,68c-18.5,0-33.5,13-33.5,29.5,0,10.5,6.5,14.5,13,14.5,4,0,7-2,7-5.5,0-3.5-3-4-3-8,0-5.5,5.5-9.5,15-9.5,13,0,21-7.5,21-18C115.5,63.5,107,68,96,68Z"/>
      <circle class="uuid-dot" cx="80" cy="86" r="3.4"/>
      <circle class="uuid-dot" cx="94" cy="79" r="3.4"/>
      <circle class="uuid-dot" cx="108" cy="86" r="3.4"/>
      <circle class="uuid-dot" cx="102" cy="100" r="3.4"/>
    </g>
  </g>
</svg>
